<svg width="312" height="159" viewBox="0 0 312 159" fill="none" xmlns="http://www.w3.org/2000/svg">
<mask id="path-1-outside-1" maskUnits="userSpaceOnUse" x="0" y="0" width="312" height="159" fill="black">
<rect fill="white" width="312" height="159"/>
<path fill-rule="evenodd" clip-rule="evenodd" d="M307 5H25.0498V69.3165L5 79.5L25.0498 89.6835V154H307V5Z"/>
</mask>
<path d="M25.0498 5V0C22.2884 0 20.0498 2.23858 20.0498 5L25.0498 5ZM307 5H312C312 2.23858 309.761 0 307 0V5ZM25.0498 69.3165L27.314 73.7744C28.9924 72.9219 30.0498 71.199 30.0498 69.3165H25.0498ZM5 79.5L2.73576 75.0421C1.05735 75.8945 0 77.6175 0 79.5C0 81.3825 1.05735 83.1055 2.73576 83.9579L5 79.5ZM25.0498 89.6835H30.0498C30.0498 87.801 28.9924 86.0781 27.314 85.2256L25.0498 89.6835ZM25.0498 154H20.0498C20.0498 156.761 22.2884 159 25.0498 159V154ZM307 154V159C309.761 159 312 156.761 312 154H307ZM25.0498 10H307V0H25.0498V10ZM30.0498 69.3165V5H20.0498V69.3165H30.0498ZM7.26424 83.9579L27.314 73.7744L22.7856 64.8585L2.73576 75.0421L7.26424 83.9579ZM27.314 85.2256L7.26424 75.0421L2.73576 83.9579L22.7856 94.1415L27.314 85.2256ZM30.0498 154V89.6835H20.0498V154H30.0498ZM307 149H25.0498V159H307V149ZM302 5V154H312V5H302Z" fill="black" mask="url(#path-1-outside-1)"/>
</svg>
