<svg width="40" height="40" viewBox="0 0 40 40" fill="none" xmlns="http://www.w3.org/2000/svg">
<path fill-rule="evenodd" clip-rule="evenodd" d="M30.3069 27.3054C32.9454 23.9038 34.1889 19.6247 33.7844 15.3388C33.3799 11.0528 31.3578 7.08198 28.1295 4.23403C24.9012 1.38607 20.7092 -0.125043 16.4063 0.0081073C12.1033 0.141258 8.01276 1.90867 4.96671 4.95078C1.91801 7.995 0.144817 12.0872 0.00848512 16.3933C-0.127847 20.6995 1.38294 24.8957 4.23297 28.1266C7.083 31.3576 11.0578 33.3803 15.3473 33.7824C19.6369 34.1845 23.9183 32.9359 27.3192 30.291L27.4102 30.3862L36.3859 39.364C36.5825 39.5606 36.8159 39.7165 37.0727 39.8229C37.3296 39.9293 37.6049 39.9841 37.8829 39.9841C38.1609 39.9841 38.4362 39.9293 38.6931 39.8229C38.9499 39.7165 39.1833 39.5606 39.3799 39.364C39.5765 39.1674 39.7324 38.934 39.8388 38.6772C39.9452 38.4203 40 38.145 40 37.867C40 37.589 39.9452 37.3137 39.8388 37.0568C39.7324 36.7999 39.5765 36.5666 39.3799 36.37L30.4021 27.3943C30.3712 27.3638 30.3394 27.3341 30.3069 27.3054ZM25.9142 7.9448C27.1089 9.12014 28.059 10.5204 28.7098 12.0648C29.3606 13.6091 29.6991 15.2671 29.706 16.943C29.7128 18.6189 29.3877 20.2795 28.7495 21.8291C28.1114 23.3787 27.1727 24.7867 25.9876 25.9717C24.8026 27.1568 23.3947 28.0954 21.8451 28.7336C20.2954 29.3718 18.6348 29.6969 16.9589 29.69C15.283 29.6832 13.6251 29.3446 12.0807 28.6939C10.5363 28.0431 9.13607 27.093 7.96073 25.8983C5.61189 23.5109 4.30158 20.2921 4.31522 16.943C4.32886 13.5939 5.66533 10.3858 8.03353 8.0176C10.4017 5.64941 13.6098 4.31293 16.9589 4.29929C20.308 4.28565 23.5268 5.59596 25.9142 7.9448Z" fill="white"/>
</svg>
