<svg width="16" height="16" viewBox="0 0 16 16" fill="none" xmlns="http://www.w3.org/2000/svg">
<path d="M12.6667 1.33331L9.33333 4.33331V11.6666L12.6667 8.66665V1.33331ZM4.33333 3.33331C3.03333 3.33331 1.63333 3.59998 0.666666 4.33331V14.1066C0.666666 14.2733 0.833333 14.44 0.999999 14.44C1.06667 14.44 1.1 14.3933 1.16667 14.3933C2.06667 13.96 3.36667 13.6666 4.33333 13.6666C5.63333 13.6666 7.03333 13.9333 8 14.6666C8.9 14.1 10.5333 13.6666 11.6667 13.6666C12.7667 13.6666 13.9 13.8733 14.8333 14.3733C14.9 14.4066 14.9333 14.3933 15 14.3933C15.1667 14.3933 15.3333 14.2266 15.3333 14.06V4.33331C14.9333 4.03331 14.5 3.83331 14 3.66665V12.6666C13.2667 12.4333 12.4667 12.3333 11.6667 12.3333C10.5333 12.3333 8.9 12.7666 8 13.3333V4.33331C7.03333 3.59998 5.63333 3.33331 4.33333 3.33331Z" fill="white"/>
</svg>
